# xmcd
#
# Track frame offsets: 
#        150
#        14767
#        36182
#        50385
#        61045
#        75140
#        91445
#        120500
#        138902
#        156157
#        178260
#        192560
#        211167
#        225217
#        237580
#        248315
#        265257
#        281262
#        292097
#        302855
#
# Disc length: 4257 seconds
#
# Revision: 19
# Processed by: cddbd v1.5.2PL0 Copyright (c) Steve Scherf et al.
# Submitted via: ExactAudioCopy v1.3
#
DISCID=0d109f14
DTITLE=Charles Aznavour - 40 chansons d'or - CD 1
DYEAR=1996
DGENRE=Variété francophone
TTITLE0=Au creux de mon épaule
TTITLE1=Sa jeunesse
TTITLE2=Toi et moi
TTITLE3=Le palais de nos chimères
TTITLE4=Mes emmerdes
TTITLE5=À ma fille
TTITLE6=Non je n'ai rien oublié
TTITLE7=La bohème
TTITLE8=Les deux guitares
TTITLE9=Comme ils disent
TTITLE10=Désormais
TTITLE11=Bon anniversaire
TTITLE12=Il te suffisait que je t'aime
TTITLE13=Pour faire une jam
TTITLE14=Les comédiens
TTITLE15=La mamma
TTITLE16=Emmenez-moi
TTITLE17=Trousse Chemise
TTITLE18=Donne tes seize ans
TTITLE19=Tu t'laisses aller
EXTD=
EXTT0=
EXTT1=
EXTT2=
EXTT3=
EXTT4=
EXTT5=
EXTT6=
EXTT7=
EXTT8=
EXTT9=
EXTT10=
EXTT11=
EXTT12=
EXTT13=
EXTT14=
EXTT15=
EXTT16=
EXTT17=
EXTT18=
EXTT19=
PLAYORDER=
